<svg xmlns="http://www.w3.org/2000/svg" viewBox="0 0 692.63 135.98"><title>logo-colour</title><g data-name="Layer 3" fill="#5ab7b2"><circle cx="531.68" cy="16.53" r="15.34"/><path d="M193.28 23l-14.4 5a3.49 3.49 0 0 1-4-1.36c-3-4.23-8.16-6.35-14.46-6.35-7.65 0-13.55 3.67-13.55 9.09 0 4.94 2.23 9.25 13.39 12.91l4.3 1.43c25.82 8.77 35.07 21.52 35.07 37.14 0 23-23.11 33-40.65 33-19.27 0-33.58-8.82-40.23-22.88a3.49 3.49 0 0 1 1.76-4.66l13.19-5.89a3.28 3.28 0 0 1 4.3 1.29 23.9 23.9 0 0 0 21 11.85c7.81 0 17.06-3.51 17.06-12.75 0-8.45-4.62-11.64-17.85-16.26L154.1 63c-17.69-6.25-30.6-15.5-30.6-33.67C123.5 12 140.39 0 159.52 0c17.11 0 29 8.8 35.3 18.41a3.08 3.08 0 0 1-1.54 4.59zM507.79 4.09v105.44a3.17 3.17 0 0 1-3.17 3.17H487a2.68 2.68 0 0 1-2.68-2.68V67.11h-44.43v42.62a3 3 0 0 1-3 3H419.4a2.94 2.94 0 0 1-2.94-2.94V4.27a3.16 3.16 0 0 1 3.16-3.16h17.19a3.08 3.08 0 0 1 3.08 3.08V47h44.47V4.08a3 3 0 0 1 3-3h17.5a3 3 0 0 1 2.93 3.01zM610.4 32.23V47.6a2.88 2.88 0 0 1-3.07 2.88c-1.53-.11-3.07-.11-4.9-.11-14.19 0-25.18 10.52-26.62 26.46v32.65a3.21 3.21 0 0 1-3.21 3.21h-16.28a3.14 3.14 0 0 1-3.14-3.14v-77a2.76 2.76 0 0 1 2.76-2.76h16.51a3.37 3.37 0 0 1 3.37 3.37v23.27c1.75-15.3 9.4-27.42 26.78-27.42 1.74 0 3.55.06 5.12.21a3 3 0 0 1 2.68 3.01zM692.63 71.57a54.63 54.63 0 0 1-.28 5.7 2.88 2.88 0 0 1-2.86 2.59H632.7c2.55 9.09 11.32 14.35 19.13 14.35 5.8 0 10.17-1.44 13.2-3.9a2.82 2.82 0 0 1 3.06-.31l12.82 6.52a3.47 3.47 0 0 1 .84 5.62 44.74 44.74 0 0 1-30.09 11.67c-17.22 0-42.4-13.23-42.4-42.24s23.91-42.72 41.92-42.72c17.7 0 41.45 13.71 41.45 42.72zM633 62.65h36.5a18.88 18.88 0 0 0-18.33-14 18.32 18.32 0 0 0-18.17 14zM531.68 40.91a16.49 16.49 0 0 1-8.15-2.14 2.33 2.33 0 0 0-3.48 2v69.56a2.34 2.34 0 0 0 2.34 2.34H541a2.34 2.34 0 0 0 2.34-2.34V40.8a2.33 2.33 0 0 0-3.48-2 16.49 16.49 0 0 1-8.18 2.11zM405.34 48.3a3.33 3.33 0 0 0 3.33-3.3V32.47a2.66 2.66 0 0 0-2.67-2.66h-15v-11.3a3 3 0 0 0-3-3h-17a2.72 2.72 0 0 0-2.72 2.72v11.58h-4.74A3.39 3.39 0 0 0 360 33.2v2.19a3.31 3.31 0 0 0 .87 2.23c7.54 8.23 12.75 19.49 12.75 34A50.42 50.42 0 0 1 369.15 93a3.66 3.66 0 0 0-.29 2.14c2.58 15.27 12.25 18.53 23.56 18.53 6.53 0 11.25-.85 14.67-2.23a2.25 2.25 0 0 0 1.43-2.09V94.11a1.37 1.37 0 0 0-1.81-1.28 26.44 26.44 0 0 1-8.88 1.17c-5.42 0-6.85-4.3-6.85-8V48.3zM279.14 45.35a2.57 2.57 0 0 0-.25-3A39 39 0 0 0 250 28.85c-13.07 0-21.2 7.17-21.2 10.68v-7a2.69 2.69 0 0 0-2.69-2.69h-17.05a3 3 0 0 0-3 3v100.79a3.14 3.14 0 0 0 .29 1.33 1.83 1.83 0 0 0 2.89.53 161.55 161.55 0 0 1 18.3-14.36 3 3 0 0 0 1.3-2.46v-17c0 3.19 8.13 12.11 21.2 12.11a38.83 38.83 0 0 0 28.81-13.37 2.53 2.53 0 0 0 .24-3 49.19 49.19 0 0 1-6.94-25.9 50 50 0 0 1 6.99-26.16zm-32.77 48.86c-9.56 0-18.65-6.38-18.65-23.11 0-16.9 9.09-22.79 18.65-22.79 10 0 19.77 8.45 19.77 22.79 0 14.82-9.73 23.11-19.77 23.11z"/><path d="M365.07 71.65c0 28.9-25.09 42.08-42.08 42.08-17.15 0-42.24-13.18-42.24-42.08S305.84 29.09 323 29.09c17 0 42.07 13.66 42.07 42.56zm-61.62 0c0 14.77 10 22.55 19.53 22.55 9.37 0 19.37-7.78 19.37-22.55 0-15.25-10-23.19-19.37-23.19-9.52.01-19.53 7.95-19.53 23.19z"/><ellipse cx="53.7" cy="101.99" rx="35.21" ry="11.08"/><path d="M53.7 60.37L3.15.64A1.79 1.79 0 0 0 0 2.12L18.49 102h70.42l18.45-99.88a1.79 1.79 0 0 0-3.12-1.48z" opacity=".36"/><path opacity=".56" d="M87.55 99L53.7 60.37 19.78 99.08v2.91h67.77V99z"/></g></svg>