<svg xmlns="http://www.w3.org/2000/svg" viewBox="0 0 692.63 135.98"><title>logo-white</title><g id="a9b9f426-c6c8-42bd-a523-2dac7ad586af" data-name="Layer 3"><circle cx="531.68" cy="16.53" r="15.34" fill="#fff"/><path d="M193.28,23,178.88,28a3.49,3.49,0,0,1-4-1.36c-3-4.23-8.16-6.35-14.46-6.35-7.65,0-13.55,3.67-13.55,9.09,0,4.94,2.23,9.25,13.39,12.91l4.3,1.43c25.82,8.77,35.07,21.52,35.07,37.14,0,23-23.11,33-40.65,33-19.27,0-33.58-8.82-40.23-22.88a3.49,3.49,0,0,1,1.76-4.66l13.19-5.89A3.28,3.28,0,0,1,138,81.72,23.9,23.9,0,0,0,159,93.57c7.81,0,17.06-3.51,17.06-12.75,0-8.45-4.62-11.64-17.85-16.26L154.1,63C136.41,56.75,123.5,47.5,123.5,29.33,123.5,12,140.39,0,159.52,0c17.11,0,29,8.8,35.3,18.41A3.08,3.08,0,0,1,193.28,23Z" fill="#fff"/><path d="M507.79,4.09V109.53a3.17,3.17,0,0,1-3.17,3.17H487a2.68,2.68,0,0,1-2.68-2.68V67.11H439.89v42.62a3,3,0,0,1-3,3H419.4a2.94,2.94,0,0,1-2.94-2.94V4.27a3.16,3.16,0,0,1,3.16-3.16h17.19a3.08,3.08,0,0,1,3.08,3.08V47h44.47V4.08a3,3,0,0,1,3-3h17.5A3,3,0,0,1,507.79,4.09Z" fill="#fff"/><path d="M610.4,32.23V47.6a2.88,2.88,0,0,1-3.07,2.88c-1.53-.11-3.07-.11-4.9-.11-14.19,0-25.18,10.52-26.62,26.46v32.65a3.21,3.21,0,0,1-3.21,3.21H556.32a3.14,3.14,0,0,1-3.14-3.14v-77a2.76,2.76,0,0,1,2.76-2.76h16.51a3.37,3.37,0,0,1,3.37,3.37V56.43c1.75-15.3,9.4-27.42,26.78-27.42,1.74,0,3.55.06,5.12.21A3,3,0,0,1,610.4,32.23Z" fill="#fff"/><path d="M692.63,71.57a54.63,54.63,0,0,1-.28,5.7,2.88,2.88,0,0,1-2.86,2.59H632.7c2.55,9.09,11.32,14.35,19.13,14.35,5.8,0,10.17-1.44,13.2-3.9a2.82,2.82,0,0,1,3.06-.31l12.82,6.52a3.47,3.47,0,0,1,.84,5.62,44.74,44.74,0,0,1-30.09,11.67c-17.22,0-42.4-13.23-42.4-42.24s23.91-42.72,41.92-42.72C668.88,28.85,692.63,42.56,692.63,71.57ZM633,62.65h36.5a18.88,18.88,0,0,0-18.33-14A18.32,18.32,0,0,0,633,62.65Z" fill="#fff"/><path d="M531.68,40.91a16.49,16.49,0,0,1-8.15-2.14,2.33,2.33,0,0,0-3.48,2v69.56a2.34,2.34,0,0,0,2.34,2.34H541a2.34,2.34,0,0,0,2.34-2.34V40.8a2.33,2.33,0,0,0-3.48-2A16.49,16.49,0,0,1,531.68,40.91Z" fill="#fff"/><path d="M405.34,48.3A3.33,3.33,0,0,0,408.67,45V32.47A2.66,2.66,0,0,0,406,29.81H391V18.51a3,3,0,0,0-3-3h-17a2.72,2.72,0,0,0-2.72,2.72V29.81h-4.74A3.39,3.39,0,0,0,360,33.2v2.19a3.31,3.31,0,0,0,.87,2.23c7.54,8.23,12.75,19.49,12.75,34A50.42,50.42,0,0,1,369.15,93a3.66,3.66,0,0,0-.29,2.14c2.58,15.27,12.25,18.53,23.56,18.53,6.53,0,11.25-.85,14.67-2.23a2.25,2.25,0,0,0,1.43-2.09c0-3.32,0-11.48,0-15.24a1.37,1.37,0,0,0-1.81-1.28A26.44,26.44,0,0,1,397.83,94c-5.42,0-6.85-4.3-6.85-8V48.3Z" fill="#fff"/><path d="M279.14,45.35a2.57,2.57,0,0,0-.25-3A39,39,0,0,0,250,28.85c-13.07,0-21.2,7.17-21.2,10.68v-7a2.69,2.69,0,0,0-2.69-2.69H209.06a3,3,0,0,0-3,3V133.63a3.14,3.14,0,0,0,.29,1.33,1.83,1.83,0,0,0,2.89.53,161.55,161.55,0,0,1,18.3-14.36h0a3,3,0,0,0,1.3-2.46v-17c0,3.19,8.13,12.11,21.2,12.11a38.83,38.83,0,0,0,28.81-13.37,2.53,2.53,0,0,0,.24-3,49.19,49.19,0,0,1-6.94-25.9A50,50,0,0,1,279.14,45.35ZM246.37,94.21c-9.56,0-18.65-6.38-18.65-23.11,0-16.9,9.09-22.79,18.65-22.79,10,0,19.77,8.45,19.77,22.79C266.14,85.92,256.41,94.21,246.37,94.21Z" fill="#fff"/><path d="M365.07,71.65c0,28.9-25.09,42.08-42.08,42.08-17.15,0-42.24-13.18-42.24-42.08S305.84,29.09,323,29.09C340,29.09,365.07,42.75,365.07,71.65Zm-61.62,0c0,14.77,10,22.55,19.53,22.55,9.37,0,19.37-7.78,19.37-22.55,0-15.25-10-23.19-19.37-23.19C313.46,48.47,303.45,56.41,303.45,71.65Z" fill="#fff"/><ellipse cx="53.7" cy="101.99" rx="35.21" ry="11.08" fill="#fff"/><path d="M53.7,60.37,3.15.64A1.79,1.79,0,0,0,0,2.12L18.49,102H88.91L107.36,2.12A1.79,1.79,0,0,0,104.24.64Z" fill="#fff" opacity="0.36"/><polygon points="87.55 99 53.7 60.37 19.78 99.08 19.78 101.99 87.55 101.99 87.55 99" fill="#fff" opacity="0.56"/></g></svg>